<svg width="1728" height="550" viewBox="0 0 1728 550" fill="none" xmlns="http://www.w3.org/2000/svg">
<path d="M1760 440C1709.17 397.123 1583.16 320.379 1485.72 356.415C1363.92 401.461 1293.15 187.772 1335.18 117.173C1389.1 26.5813 1390.88 52.6077 1485.72 89.6452C1580.56 126.683 1595.5 118.5 1595.5 118.5C1595.5 118.5 1583.77 130.457 1651.3 58.6137C1729.86 -24.9709 1734.12 5.63568 1760 16.48L1760 440Z" stroke="#7B1FA2" stroke-width="3"/>
<path d="M1500.15 336.392C1592.47 305.95 1711.85 370.78 1760 407L1760 49.232C1735.48 40.0712 1740.24 24.8283 1657.02 84.8244C1589.5 133.5 1599.5 126.5 1599.5 126.5C1599.5 126.5 1590 142.326 1500.15 111.038C1410.31 79.7508 1408.62 57.765 1357.54 134.292C1317.72 193.931 1384.77 374.444 1500.15 336.392Z" fill="#E040FB"/>
<path d="M-1.00002 549C-1.00002 542.5 4.5 367.628 216.5 367.628C428.5 367.628 436.659 264.65 410.5 244.5C336.5 187.5 235.418 249.169 197 196.5C166 154 57 204.5 -0.999973 72.5C-47.4 -33.1 4.06929 84.9998 -1.00002 549Z" stroke="#7B1FA2" stroke-width="3"/>
<path d="M-2.7247 525C-2.7247 524.911 -2.72353 524.788 -2.72055 524.631C1.98808 104.78 -46.1067 -2.06948 -2.72466 93.5244C51.5188 213.052 153.459 167.324 182.451 205.808C218.381 253.501 312.916 197.658 382.123 249.272C406.588 267.518 398.957 360.766 200.688 360.766C5.40873 360.766 -2.52567 514.375 -2.72055 524.631C-2.72193 524.754 -2.72331 524.877 -2.7247 525Z" fill="#E040FB"/>
</svg>
